<?xml version="1.0" standalone="no"?><!DOCTYPE svg PUBLIC "-//W3C//DTD SVG 1.1//EN" "http://www.w3.org/Graphics/SVG/1.1/DTD/svg11.dtd"><svg t="1762775252640" class="icon" viewBox="0 0 1024 1024" version="1.1" xmlns="http://www.w3.org/2000/svg" p-id="33218" xmlns:xlink="http://www.w3.org/1999/xlink" width="200" height="200"><path d="M512 0h426.666667v1024l-426.666667-256-426.666667 256V0h426.666667z" fill="#515151" p-id="33219" data-spm-anchor-id="a313x.search_index.0.i16.4d2d3a81cRAG9m" class="selected"></path><path d="M512 768L85.333333 1024V0h426.666667v768z" fill="#515151" p-id="33220" data-spm-anchor-id="a313x.search_index.0.i15.4d2d3a81cRAG9m" class=""></path><path d="M602.965333 597.333333H368.469333v-75.776l132.096-143.36c13.312-14.336 18.432-23.552 18.432-38.912 0-19.968-11.264-33.792-32.768-33.792-15.36 0-33.792 7.168-33.792 35.328H368.469333c0-71.68 54.272-111.104 117.76-111.104 67.584 0 116.736 41.472 116.736 110.08 0 38.4-15.872 58.88-45.056 89.6l-87.04 92.16h132.096V597.333333z" fill="#FFFFFF" p-id="33221"></path></svg>